<?xml version="1.0" encoding="UTF-8"?>
<svg version="1.1" xmlns="http://www.w3.org/2000/svg" width="1024" height="1024">
<path d="M0 0 C337.92 0 675.84 0 1024 0 C1024 337.92 1024 675.84 1024 1024 C686.08 1024 348.16 1024 0 1024 C0 686.08 0 348.16 0 0 Z " fill="#FDFDFD" transform="translate(0,0)"/>
<path d="M0 0 C0 15.18 0 30.36 0 46 C-5.296875 47.32421875 -10.59375 48.6484375 -15.890625 49.97265625 C-16.97923828 50.24480957 -18.06785156 50.51696289 -19.18945312 50.79736328 C-21.35351562 51.33837891 -23.51757812 51.87939453 -25.68164062 52.42041016 C-27.78371534 52.94592884 -29.88576603 53.47154366 -31.98779297 53.99725342 C-34.10771905 54.52703075 -36.22783788 55.05603738 -38.34814453 55.58428955 C-43.78113171 56.93891684 -49.20995555 58.30747689 -54.6328125 59.70214844 C-55.70704468 59.97634613 -56.78127686 60.25054382 -57.88806152 60.53305054 C-59.91740239 61.05141949 -61.94557693 61.57438621 -63.97229004 62.10293579 C-69.6591278 63.54947967 -75.15232415 64.48874007 -81 65 C-80.67 65.99 -80.34 66.98 -80 68 C-79.93259135 69.56118428 -79.91485544 71.1250252 -79.9375 72.6875 C-79.94652344 73.49574219 -79.95554687 74.30398438 -79.96484375 75.13671875 C-79.97644531 75.75160156 -79.98804688 76.36648438 -80 77 C-79.04222656 76.75765625 -78.08445312 76.5153125 -77.09765625 76.265625 C-69.80768819 74.42855675 -62.51059761 72.63805023 -55.1875 70.9375 C-50.60154251 69.87102215 -46.03482753 68.76920286 -41.5 67.5 C-36.33778456 66.05613222 -31.1311496 64.83026081 -25.90820312 63.62988281 C-21.84713894 62.69064991 -17.80725284 61.69843847 -13.77734375 60.6328125 C-12.45947876 60.28839111 -12.45947876 60.28839111 -11.11499023 59.93701172 C-9.42071111 59.49188974 -7.72862254 59.03830935 -6.03930664 58.57470703 C3.38685899 56.1160432 11.17610345 56.95420203 20.5625 59.25 C22.01039917 59.59224609 22.01039917 59.59224609 23.48754883 59.94140625 C26.3278708 60.61642759 29.16432248 61.30575857 32 62 C33.12196777 62.27166992 33.12196777 62.27166992 34.26660156 62.54882812 C40.2368795 63.9966844 46.18869878 65.50309153 52.1171875 67.11328125 C63.2674143 70.1301662 74.49159514 72.74138416 85.76416016 75.25732422 C87.10059549 75.55562127 88.4370212 75.85396143 89.7734375 76.15234375 C90.44182648 76.30155273 91.11021545 76.45076172 91.79885864 76.60449219 C99.52304313 78.33351009 107.23072415 80.1327288 114.9375 81.9375 C115.60182037 82.09297302 116.26614075 82.24844604 116.95059204 82.40863037 C120.63409278 83.27086929 124.31722715 84.13465769 128 85 C128.60949886 142.66796899 122.71662432 202.99871929 85 249 C84.53867676 249.56428711 84.07735352 250.12857422 83.60205078 250.70996094 C74.01030159 262.35778099 63.62873391 273.35857933 52 283 C51.48195801 283.4424707 50.96391602 283.88494141 50.43017578 284.34082031 C39.59356925 293.59005082 28.14887282 301.56595619 16 309 C14.81833252 309.76957031 14.81833252 309.76957031 13.61279297 310.5546875 C7.86875783 314.10943222 7.86875783 314.10943222 3.9609375 313.6171875 C2.98382813 313.08351563 2.00671875 312.54984375 1 312 C0.37641602 311.66258789 -0.24716797 311.32517578 -0.88964844 310.97753906 C-3.08928305 309.748606 -5.23230778 308.45064619 -7.375 307.125 C-8.16229492 306.6395874 -8.94958984 306.1541748 -9.76074219 305.65405273 C-24.10868838 296.66572343 -37.39864937 286.02444544 -49.73046875 274.43359375 C-50.52066406 273.69238281 -51.31085938 272.95117188 -52.125 272.1875 C-52.78757812 271.54167969 -53.45015625 270.89585937 -54.1328125 270.23046875 C-55.91858655 268.77282915 -55.91858655 268.77282915 -58.0703125 269.203125 C-60.54805176 270.22632097 -62.7441077 271.55873547 -65 273 C-63.40308677 276.92729243 -60.71500328 279.6298751 -57.75 282.5625 C-56.95589722 283.3503186 -56.95589722 283.3503186 -56.14575195 284.15405273 C-50.70740222 289.44321091 -44.85983475 294.10534861 -38.79443359 298.64990234 C-37.0330161 299.97515931 -35.29135571 301.32331786 -33.55078125 302.67578125 C-22.69669047 310.99067444 -10.02554892 320.65815036 3 325 C3 339.85 3 354.7 3 370 C-13.47661463 364.50779512 -28.74154233 354.80056279 -43 345 C-44.07072754 344.27296875 -44.07072754 344.27296875 -45.16308594 343.53125 C-54.93898476 336.8782679 -64.12484344 329.80914613 -73 322 C-74.13695312 321.02933594 -74.13695312 321.02933594 -75.296875 320.0390625 C-80.10404811 315.92129018 -84.56934925 311.5173374 -89 307 C-90.2065625 305.7934375 -90.2065625 305.7934375 -91.4375 304.5625 C-92.283125 303.716875 -93.12875 302.87125 -94 302 C-94.65613281 301.36707031 -95.31226563 300.73414063 -95.98828125 300.08203125 C-101.80983507 294.40124039 -106.96253836 288.38021457 -112 282 C-112.76957031 281.05898438 -113.53914063 280.11796875 -114.33203125 279.1484375 C-131.1516155 258.11716413 -144.03449279 233.71368647 -152 208 C-152.28327148 207.10200684 -152.56654297 206.20401367 -152.85839844 205.27880859 C-164.23812932 168.92317955 -168.28267169 130.93547381 -170 93 C-170.11167471 90.77863051 -170.22364131 88.55727566 -170.3359375 86.3359375 C-171.02460983 71.88823514 -171.11380227 57.46179595 -171 43 C-156.45324678 38.7377507 -141.84368118 34.87033085 -127.125 31.25 C-124.19932922 30.52741498 -121.27393345 29.80374091 -118.34884644 29.07879639 C-116.55392436 28.63424036 -114.75863998 28.1911435 -112.96292114 27.74981689 C-108.27800019 26.59265204 -103.63989922 25.32847054 -99 24 C-97.12633613 23.55093741 -95.24868237 23.11815578 -93.3671875 22.703125 C-92.3248999 22.46980469 -91.2826123 22.23648437 -90.20874023 21.99609375 C-89.10860596 21.74988281 -88.00847168 21.50367188 -86.875 21.25 C-77.79313099 19.18994619 -68.84092891 16.89384985 -59.91235352 14.25317383 C-52.04904044 11.95242945 -44.10631248 10.06309659 -36.13183594 8.19067383 C-28.17870929 6.31302491 -20.30616022 4.22409458 -12.44921875 1.98046875 C-11.31097656 1.65691406 -10.17273438 1.33335937 -9 1 C-7.92685547 0.68482422 -7.92685547 0.68482422 -6.83203125 0.36328125 C-5 0 -5 0 0 0 Z " fill="#09619B" transform="translate(506,241)"/>
<path d="M0 0 C7.87673805 1.12524829 7.87673805 1.12524829 11.27270508 1.95214844 C12.41604057 2.22813873 12.41604057 2.22813873 13.58247375 2.50970459 C14.38670273 2.70759583 15.1909317 2.90548706 16.01953125 3.109375 C16.87697433 3.31806213 17.73441742 3.52674927 18.61784363 3.74176025 C20.43109172 4.18396226 22.24393623 4.62782206 24.05639648 5.07324219 C26.76501046 5.738339 29.47514246 6.39693038 32.18554688 7.0546875 C40.19492188 9.00816005 48.17887329 11.0119679 56.109375 13.265625 C64.90439768 15.75826072 73.75987598 18.00732695 82.62109375 20.25 C83.3759437 20.44104561 84.13079365 20.63209122 84.90851784 20.82892609 C89.61888651 22.020276 94.33001515 23.20859997 99.04138184 24.39599609 C106.11031572 26.17790474 113.17829273 27.96360408 120.24609375 29.75 C120.99539532 29.93929832 121.74469688 30.12859665 122.51670456 30.32363129 C132.49574088 32.84550985 142.4646415 35.40121973 152.41040039 38.05175781 C156.84539005 39.22332143 161.29403658 40.33320212 165.75 41.421875 C167.51986336 41.87663156 169.26642051 42.42214017 171 43 C171.25473101 58.07091092 170.484739 73.07852414 169.6875 88.125 C169.58571442 90.06119202 169.58571442 90.06119202 169.48187256 92.03649902 C165.10812627 174.41830391 165.10812627 174.41830391 152 208 C151.41007732 209.60318192 150.8229866 211.20740789 150.23828125 212.8125 C146.13345806 223.93190798 141.61287334 234.56202501 136 245 C135.65888184 245.64743164 135.31776367 246.29486328 134.96630859 246.96191406 C124.99776075 265.82183085 112.18947041 282.49902276 97.6875 298.08984375 C95.24699219 300.7325448 92.87068289 303.41988149 90.5 306.125 C82.20538675 315.3298186 72.68733815 323.05544532 62.87548828 330.56152344 C60.97004951 332.02297166 59.07690139 333.49944574 57.18359375 334.9765625 C47.55559623 342.41818469 37.51744846 348.88995164 27 355 C26.2874707 355.41411133 25.57494141 355.82822266 24.84082031 356.25488281 C1.05330735 370 1.05330735 370 -3 370 C-3 355.15 -3 340.3 -3 325 C0.96 323.02 4.92 321.04 9 319 C33.94164355 304.31619315 57.32280625 285.11867283 76 263 C76.80566406 262.07058594 77.61132812 261.14117187 78.44140625 260.18359375 C108.62054006 224.84405843 120.20178796 183.53295279 125 138 C125.14864502 136.68322266 125.14864502 136.68322266 125.30029297 135.33984375 C127.50310108 115.63715534 127.63007053 95.80325703 128 76 C126.74582275 75.84998535 125.49164551 75.6999707 124.19946289 75.54541016 C120.51248217 75.10440302 117.03070248 74.33263218 113.4375 73.375 C105.66475754 71.35642406 97.83973518 69.61239549 90 67.875 C76.73664026 64.9258946 63.55708266 61.68285129 50.38418579 58.35494995 C37.58482122 55.12227831 24.76373673 52.01821368 11.89624023 49.06835938 C10.75872314 48.80732422 9.62120605 48.54628906 8.44921875 48.27734375 C7.46268311 48.05296631 6.47614746 47.82858887 5.4597168 47.59741211 C3 47 3 47 0 46 C0 30.82 0 15.64 0 0 Z " fill="#0B457B" transform="translate(518,241)"/>
<path d="M0 0 C0.99 0.33 1.98 0.66 3 1 C5.37657411 8.01003875 5.86260973 15.42171798 6.625 22.75 C6.82609375 24.54824219 6.82609375 24.54824219 7.03125 26.3828125 C7.83587651 33.95287008 8.17321456 41.38905733 8 49 C8.9075 49.04125 9.815 49.0825 10.75 49.125 C17.46122112 50.0700495 24.57730561 53.74059066 29.4921875 58.32421875 C30.31976562 58.87722656 31.14734375 59.43023437 32 60 C36.36310514 58.89355744 40.1989794 56.9941181 44.17578125 54.91796875 C45.33400391 54.31533203 46.49222656 53.71269531 47.68554688 53.09179688 C48.58067993 52.62181274 48.58067993 52.62181274 49.49389648 52.14233398 C51.29511297 51.19662883 53.099346 50.25691413 54.90429688 49.31835938 C60.72215267 46.2819743 66.49322888 43.21795022 72.12182617 39.84106445 C74 39 74 39 78 39 C77.85722897 43.71144404 75.64568234 45.86799951 72.3984375 48.9296875 C67.71429802 52.97300008 62.81635965 56.73812004 57.91552734 60.51220703 C55.94633156 62.04168436 53.99661258 63.59327346 52.05078125 65.15234375 C51.41406494 65.66055664 50.77734863 66.16876953 50.12133789 66.69238281 C48.89260319 67.67408813 47.66643681 68.65901842 46.44311523 69.64746094 C42.22419657 73 42.22419657 73 40 73 C40.4640625 74.11375 40.4640625 74.11375 40.9375 75.25 C43.7213243 85.07526222 43.0369273 93.32301131 40 103 C40.5775 103.25652344 41.155 103.51304687 41.75 103.77734375 C44.21495929 105.11680948 45.95484179 106.64516418 48 108.5625 C51.49248799 111.73436614 55.08297649 114.63041767 58.875 117.4375 C63.0200406 120.51302435 67.13951858 123.60981691 71.1875 126.8125 C72.08855469 127.52019531 72.98960937 128.22789062 73.91796875 128.95703125 C76.04389747 131.04307387 76.77665497 132.05822684 77 135 C76.67 135.33 76.34 135.66 76 136 C69.11038455 135.79378022 63.88561485 132.62004716 57.9375 129.375 C55.89371545 128.28294359 53.84944514 127.1917958 51.8046875 126.1015625 C50.8156543 125.57079102 49.82662109 125.04001953 48.80761719 124.49316406 C45.089766 122.51591381 41.33639544 120.6175466 37.5625 118.75 C36.47066406 118.20859375 35.37882813 117.6671875 34.25390625 117.109375 C33.51011719 116.74328125 32.76632812 116.3771875 32 116 C31.55011719 116.44730469 31.10023438 116.89460938 30.63671875 117.35546875 C24.34849637 123.26564169 17.40460883 126.98904034 9 129 C8.95512451 129.64735107 8.91024902 130.29470215 8.86401367 130.96166992 C8.03687141 142.64363805 7.11274102 154.27994629 5.4375 165.875 C5.31076904 166.75309326 5.18403809 167.63118652 5.0534668 168.53588867 C4.55711362 171.83213244 4.05725868 174.82822396 3 178 C1.68 178 0.36 178 -1 178 C-3.18889874 171.45233769 -3.8867353 164.84439778 -4.625 158 C-4.75688721 156.80205811 -4.88877441 155.60411621 -5.0246582 154.36987305 C-5.91453562 145.8685813 -6.38630462 137.54162439 -6 129 C-6.70253906 128.89171875 -7.40507812 128.7834375 -8.12890625 128.671875 C-15.79103651 126.87883227 -23.44003422 122.55996578 -29 117 C-29 116.34 -29 115.68 -29 115 C-31.18907043 116.08023795 -33.37625285 117.16406889 -35.5625 118.25 C-36.25980225 118.59482422 -36.95710449 118.93964844 -37.67553711 119.29492188 C-42.14087496 121.5196385 -46.55219777 123.82422553 -50.9375 126.203125 C-52.45815063 127.02055176 -52.45815063 127.02055176 -54.00952148 127.85449219 C-56.01805901 128.93706259 -58.02042075 130.03118396 -60.01586914 131.13769531 C-65.28811326 133.9649527 -68.98674839 135.73393362 -75 135 C-74.69321522 131.946097 -73.96441271 130.96502628 -71.734375 128.7734375 C-70.74953125 127.98195313 -69.7646875 127.19046875 -68.75 126.375 C-67.95070068 125.72748779 -67.95070068 125.72748779 -67.13525391 125.06689453 C-62.20257399 121.09514497 -57.17358458 117.24444413 -52.13671875 113.40625 C-47.70315714 110.00516164 -43.34590167 106.51203792 -39 103 C-39.15339844 102.24332031 -39.30679688 101.48664063 -39.46484375 100.70703125 C-41.34065418 91.21844275 -41.41210741 83.30384287 -39 74 C-39.77601563 73.40574219 -40.55203125 72.81148438 -41.3515625 72.19921875 C-44.90668975 69.47345421 -48.45388837 66.73747757 -52 64 C-52.90516357 63.30293945 -52.90516357 63.30293945 -53.82861328 62.59179688 C-59.92269883 57.89107019 -65.97309383 53.14090017 -71.8125 48.125 C-72.60269531 47.44695312 -73.39289063 46.76890625 -74.20703125 46.0703125 C-76.26222498 43.69721299 -76.67213675 42.08513947 -77 39 C-72.43328272 39.55300092 -69.05377629 40.76114017 -65 42.9140625 C-63.30677612 43.80424072 -63.30677612 43.80424072 -61.5793457 44.71240234 C-60.38618566 45.34985103 -59.19307114 45.98738494 -58 46.625 C-56.78329742 47.26738899 -55.566092 47.90882645 -54.34838867 48.54931641 C-51.96969371 49.80058005 -49.59253586 51.05458348 -47.21630859 52.31054688 C-43.27262532 54.38207323 -39.30408895 56.39766499 -35.3125 58.375 C-34.25675781 58.89835937 -33.20101562 59.42171875 -32.11328125 59.9609375 C-31.41589844 60.30382812 -30.71851563 60.64671875 -30 61 C-29.53851563 60.55269531 -29.07703125 60.10539062 -28.6015625 59.64453125 C-21.83464489 53.37242777 -15.42953249 48.82435978 -6 49 C-6.02284058 47.86099243 -6.02284058 47.86099243 -6.04614258 46.69897461 C-6.1436376 37.91314737 -5.56178385 29.30098879 -4.6875 20.5625 C-4.56809156 19.22723746 -4.44894994 17.89195104 -4.33007812 16.55664062 C-4.20439453 15.28111328 -4.07871094 14.00558594 -3.94921875 12.69140625 C-3.78425903 10.97739624 -3.78425903 10.97739624 -3.6159668 9.22875977 C-2.9488228 5.73174062 -1.72795961 3.0966231 0 0 Z " fill="#FBFAF8" transform="translate(511,322)"/>
<path d="M0 0 C2.1818339 0.06611618 4.36259647 0.18493082 6.5390625 0.3515625 C7.65667969 0.39667969 8.77429688 0.44179688 9.92578125 0.48828125 C12.6773944 0.60587156 15.41794714 0.76982461 18.1640625 0.9765625 C19.87379966 4.10079626 21.58176933 7.22599253 23.2890625 10.3515625 C23.8260376 11.33455322 24.3630127 12.31754395 24.91625977 13.33032227 C28.42296735 19.75903393 31.89909852 26.20333547 35.35693359 32.65844727 C41.49939709 44.12076894 47.785108 55.48823923 54.2265625 66.78515625 C55.20662188 68.51511956 56.18576381 70.2456029 57.1640625 71.9765625 C58.00904297 73.45987061 58.00904297 73.45987061 58.87109375 74.97314453 C59.69673828 76.44630127 59.69673828 76.44630127 60.5390625 77.94921875 C61.04179687 78.8400415 61.54453125 79.73086426 62.0625 80.64868164 C63.1640625 82.9765625 63.1640625 82.9765625 63.1640625 85.9765625 C55.5740625 85.9765625 47.9840625 85.9765625 40.1640625 85.9765625 C38.8853125 83.4603125 37.6065625 80.9440625 36.2890625 78.3515625 C35.88961426 77.57087402 35.49016602 76.79018555 35.07861328 75.98583984 C34.75876465 75.3511377 34.43891602 74.71643555 34.109375 74.0625 C33.78469238 73.4236084 33.46000977 72.7847168 33.12548828 72.12646484 C31.94551836 69.48786274 31.07809478 66.71865934 30.1640625 63.9765625 C13.9940625 63.9765625 -2.1759375 63.9765625 -18.8359375 63.9765625 C-19.4959375 65.9565625 -20.1559375 67.9365625 -20.8359375 69.9765625 C-21.51397581 71.36061566 -22.23298511 72.72570262 -23 74.0625 C-23.54068115 75.01455322 -23.54068115 75.01455322 -24.09228516 75.98583984 C-24.54394043 76.76652832 -24.9955957 77.5472168 -25.4609375 78.3515625 C-27.6265625 82.1259375 -27.6265625 82.1259375 -29.8359375 85.9765625 C-37.0959375 85.9765625 -44.3559375 85.9765625 -51.8359375 85.9765625 C-50.42739026 82.45519441 -49.04308263 79.34805391 -47.25390625 76.046875 C-46.74077881 75.09868896 -46.22765137 74.15050293 -45.69897461 73.17358398 C-45.14604736 72.15981689 -44.59312012 71.1460498 -44.0234375 70.1015625 C-43.4466626 69.03945557 -42.8698877 67.97734863 -42.27563477 66.88305664 C-37.83130848 58.72839037 -33.2606836 50.65009879 -28.65869141 42.58374023 C-24.23069429 34.77739996 -20.04898152 26.8560877 -15.96850586 18.86303711 C-15.06151512 17.09515202 -14.13845392 15.33540425 -13.19824219 13.58496094 C-11.79024117 10.96474605 -11.79024117 10.96474605 -10.59082031 8.11035156 C-7.95662342 2.63486073 -6.26159593 0.38849497 0 0 Z " fill="#0A264C" transform="translate(411.8359375,679.0234375)"/>
<path d="M0 0 C6.93 0 13.86 0 21 0 C21.0093457 1.6492749 21.01869141 3.2985498 21.02832031 4.99780273 C21.06832483 11.14260427 21.13411413 17.28691067 21.20751953 23.43139648 C21.237848 26.08614811 21.25691139 28.74029755 21.27099609 31.39526367 C21.29250897 35.22097004 21.339206 39.04568641 21.390625 42.87109375 C21.39185364 44.04957382 21.39308228 45.22805389 21.39434814 46.44224548 C21.52870759 54.07702565 22.28304892 61.33477587 27.96484375 66.9375 C28.61582031 67.288125 29.26679687 67.63875 29.9375 68 C30.91009766 68.556875 30.91009766 68.556875 31.90234375 69.125 C40.67451264 72.78415425 53.38623801 72.2999669 62.3125 69.3125 C66.34371414 67.55953264 68.90817217 66.00175759 71 62 C73.16333206 55.11784405 73.3412927 48.58730366 73.4140625 41.40625 C73.43342865 40.21898315 73.4527948 39.03171631 73.4727478 37.80847168 C73.53223652 34.03905281 73.57880624 30.2696029 73.625 26.5 C73.663208 23.93488296 73.70226136 21.36977837 73.7421875 18.8046875 C73.83791292 12.53656012 73.92205723 6.26837271 74 0 C80.6 0 87.2 0 94 0 C94.06809604 7.5198983 94.12299936 15.03967974 94.15543652 22.55981255 C94.17101405 26.05268798 94.19210496 29.54533939 94.22631836 33.03808594 C94.26550694 37.06447353 94.27977447 41.09063015 94.29296875 45.1171875 C94.30845261 46.35612762 94.32393646 47.59506775 94.33988953 48.87155151 C94.34178177 58.72946691 93.1884535 67.41750509 86.79296875 75.25 C76.63438726 85.16512965 61.74696616 86.20120499 48.38916016 86.24023438 C46.4012446 86.24987275 44.41347127 86.28104299 42.42578125 86.3125 C29.24031201 86.36529467 17.2124739 84.44852284 7.15234375 75.32421875 C-3.62441095 62.95875328 -0.34076083 41.70817859 -0.1875 26.625 C-0.17242784 24.03907028 -0.15874391 21.45313208 -0.14648438 18.8671875 C-0.11367547 12.57791293 -0.06203162 6.28905146 0 0 Z " fill="#09254B" transform="translate(484,680)"/>
<path d="M0 0 C-4.91752425 10.78990758 -15.5699197 15.7283842 -26 20 C-31.25032697 21.95554219 -36.60801556 23.48936223 -42 25 C-43.03382813 25.31195313 -44.06765625 25.62390625 -45.1328125 25.9453125 C-64.45264786 31.70736866 -84.16878888 36.38739293 -104 40 C-105.15628906 40.21398437 -106.31257813 40.42796875 -107.50390625 40.6484375 C-118.026165 42.50293521 -128.32023251 43.16774504 -139 43 C-138.6803125 43.57492187 -138.360625 44.14984375 -138.03125 44.7421875 C-136.98664904 47.02923052 -136.68356643 48.63767485 -136.5 51.125 C-136.22446638 54.32795034 -135.72813158 57.3449802 -134.99609375 60.47265625 C-133.71524673 66.73945149 -133.66610825 72.93517361 -133.5625 79.3125 C-133.21957704 93.44549836 -131.91866871 107.3078999 -130.25952148 121.34399414 C-130 124 -130 124 -130 128 C-129.34 128.33 -128.68 128.66 -128 129 C-127.65625 130.75 -127.65625 130.75 -127.5 133 C-127.21181682 136.25235304 -126.76030443 139.32461093 -126 142.5 C-125.30878829 145.44273221 -124.80346108 148.30498392 -124.5 151.3125 C-123.35526006 162.41647742 -120.83222154 172.87733254 -117.70751953 183.56298828 C-116.99550949 186.01546732 -116.30720968 188.47375903 -115.62109375 190.93359375 C-111.54660311 205.29754266 -106.57276629 219.30419844 -98.85766602 232.14575195 C-98.57463623 232.75765381 -98.29160645 233.36955566 -98 234 C-98.33 234.66 -98.66 235.32 -99 236 C-103.21557236 231.40119379 -106.17390451 226.41240844 -109.25 220.99609375 C-110.71833879 218.48221908 -112.26003459 216.12488988 -113.9375 213.75 C-118.34680522 207.22985717 -121.67364143 200.11366708 -125 193 C-125.31114746 192.34 -125.62229492 191.68 -125.94287109 191 C-142.26368464 155.79105392 -142.26368464 155.79105392 -138 143 C-138.66 143 -139.32 143 -140 143 C-140.04970947 142.38648682 -140.09941895 141.77297363 -140.15063477 141.14086914 C-140.73770378 134.27875442 -141.54263008 127.45514888 -142.40917969 120.62353516 C-145.91323397 92.99340613 -147.31551939 65.83851866 -147 38 C-140.45120428 35.71088775 -133.85063691 33.83265891 -127.1328125 32.109375 C-125.59481995 31.71081299 -125.59481995 31.71081299 -124.02575684 31.30419922 C-120.72625482 30.44986722 -117.42565036 29.59988348 -114.125 28.75 C-111.86108997 28.16467954 -109.5972555 27.57906679 -107.33349609 26.99316406 C-102.89721902 25.84541436 -98.46053476 24.69926227 -94.0234375 23.5546875 C-88.96244866 22.24898411 -83.90257675 20.93905329 -78.84375 19.625 C-77.58933105 19.29918945 -76.33491211 18.97337891 -75.04248047 18.63769531 C-73.91471191 18.34475586 -72.78694336 18.05181641 -71.625 17.75 C-69.59643348 17.22365255 -67.56779684 16.69757522 -65.5390625 16.171875 C-64.74709473 15.9665918 -63.95512695 15.76130859 -63.13916016 15.54980469 C-61.82572891 15.21222797 -60.51116678 14.87897136 -59.1947937 14.55305481 C-56.70473537 13.92559778 -54.22466779 13.2654778 -51.74414062 12.60131836 C-45.92184893 11.04438187 -40.09816157 9.49276299 -34.27392578 7.94311523 C-31.75752927 7.27258624 -29.24157779 6.60038483 -26.72607422 5.92651367 C-23.09984319 4.95551543 -19.47198175 3.99083518 -15.84375 3.02734375 C-14.71763306 2.72424789 -13.59151611 2.42115204 -12.43127441 2.10887146 C-10.85944397 1.69327721 -10.85944397 1.69327721 -9.25585938 1.26928711 C-8.33526733 1.02359482 -7.41467529 0.77790253 -6.46618652 0.52476501 C-4 0 -4 0 0 0 Z " fill="#0BB1DF" transform="translate(493,255)"/>
<path d="M0 0 C7.59 0 15.18 0 23 0 C27.79180911 9.05119498 32.55380259 18.11549056 37.23828125 27.22265625 C37.60851913 27.9423912 37.97875702 28.66212616 38.36021423 29.40367126 C40.22026449 33.02109272 42.07800576 36.63968407 43.93334961 40.25952148 C44.63768137 41.63143839 45.34218642 43.00326634 46.046875 44.375 C46.38489639 45.03423965 46.72291779 45.69347931 47.07118225 46.37269592 C49.59268002 51.26845325 52.23896833 56.0849601 54.97753906 60.86328125 C56 63 56 63 56 66 C56.66 66 57.32 66 58 66 C58.26851776 65.1376474 58.53703552 64.2752948 58.81369019 63.3868103 C59.98826957 60.03348935 61.38737975 56.98479831 62.98095703 53.81103516 C63.2738562 53.22494476 63.56675537 52.63885437 63.86853027 52.03500366 C64.82783988 50.11776651 65.79276801 48.20341846 66.7578125 46.2890625 C67.42791153 44.95259857 68.09765516 43.61595639 68.76705933 42.27914429 C70.52256321 38.77574151 72.28286025 35.27476891 74.04418945 31.77429199 C75.84357643 28.19604414 77.63838799 24.6155031 79.43359375 21.03515625 C82.951273 14.02119234 86.47444355 7.01000776 90 0 C97.26 0 104.52 0 112 0 C110.51813514 4.44559457 109.07197874 8.05857355 106.9453125 12.15625 C106.64796707 12.73138336 106.35062164 13.30651672 106.04426575 13.89907837 C105.07580041 15.76849528 104.10067721 17.63433831 103.125 19.5 C102.4433198 20.81097227 101.76176195 22.12200816 101.08032227 23.43310547 C96.66200007 31.91420091 92.134098 40.33030896 87.51489258 48.70385742 C82.66439422 57.52853459 78.05123178 66.47326383 73.45483398 75.43212891 C72.88837158 76.53347168 72.32190918 77.63481445 71.73828125 78.76953125 C71.23337158 79.75542236 70.72846191 80.74131348 70.20825195 81.75708008 C69 84 69 84 68 85 C66.29227642 85.08713831 64.58101351 85.10700007 62.87109375 85.09765625 C61.83662109 85.09443359 60.80214844 85.09121094 59.73632812 85.08789062 C58.64771484 85.07951172 57.55910156 85.07113281 56.4375 85.0625 C54.7987793 85.05573242 54.7987793 85.05573242 53.12695312 85.04882812 C50.41791505 85.03699826 47.70898401 85.02051543 45 85 C38.01584452 72.30675354 31.15351652 59.55384373 24.375 46.75 C18.3787339 35.42564676 12.28195914 24.16895837 6 13 C4.78688844 10.83600503 3.57790975 8.66968247 2.375 6.5 C1.90835937 5.6646875 1.44171875 4.829375 0.9609375 3.96875 C0 2 0 2 0 0 Z " fill="#0A264B" transform="translate(266,680)"/>
<path d="M0 0 C1.36328125 1.3671875 1.36328125 1.3671875 1.36328125 3.3671875 C2.02328125 3.3671875 2.68328125 3.3671875 3.36328125 3.3671875 C8.23610769 11.4325554 11.8118204 18.71490255 10.36328125 28.3671875 C7.81598038 37.3888781 3.233369 45.43512491 -4.68359375 50.73828125 C-6.6370502 51.771796 -8.56501659 52.60192609 -10.63671875 53.3671875 C-12.21453125 53.9859375 -12.21453125 53.9859375 -13.82421875 54.6171875 C-23.51057506 56.52270022 -31.26747074 56.09548519 -39.97265625 51.203125 C-46.60029815 46.6356885 -50.5450806 40.69436993 -53.63671875 33.3671875 C-54.06984375 32.4596875 -54.50296875 31.5521875 -54.94921875 30.6171875 C-56.8611947 21.57875573 -54.76707827 14.41566185 -49.9140625 6.7421875 C-48.32094017 4.22950307 -48.32094017 4.22950307 -48.63671875 0.3671875 C-47.77820313 0.21056641 -47.77820313 0.21056641 -46.90234375 0.05078125 C-44.27173176 -0.74293789 -42.59583549 -1.9452608 -40.38671875 -3.5703125 C-27.26833729 -12.49423594 -12.06843897 -9.3355059 0 0 Z " fill="#F6B91C" transform="translate(534.63671875,386.6328125)"/>
<path d="M0 0 C30.03 0 60.06 0 91 0 C91 4.62 91 9.24 91 14 C79.78 14 68.56 14 57 14 C57 37.43 57 60.86 57 85 C50.07 85 43.14 85 36 85 C36 61.57 36 38.14 36 14 C24.12 14 12.24 14 0 14 C0 9.38 0 4.76 0 0 Z " fill="#092549" transform="translate(668,680)"/>
<path d="M0 0 C6.93 0 13.86 0 21 0 C21 23.1 21 46.2 21 70 C39.48 70 57.96 70 77 70 C77 74.95 77 79.9 77 85 C51.59 85 26.18 85 0 85 C0 56.95 0 28.9 0 0 Z " fill="#0B264B" transform="translate(603,680)"/>
<path d="M0 0 C1.73854506 5.21563517 1.26946586 10.72790267 1.3125 16.1875 C1.34150391 17.39470703 1.37050781 18.60191406 1.40039062 19.84570312 C1.45765834 27.90283053 0.81201818 33.26284938 -4.26049805 39.56640625 C-9.57405015 44.52723116 -16.98853192 43.78754694 -23.81542969 43.70678711 C-25.99642021 43.68753161 -28.1710475 43.72701916 -30.3515625 43.77148438 C-41.95221831 43.84033346 -41.95221831 43.84033346 -46.41015625 40.12109375 C-51.3744811 34.83590899 -51.45961321 28.80289353 -51.3046875 21.83984375 C-50.87492029 17.83419292 -49.81105379 15.88133014 -47 13 C-40.1122218 7.65738877 -32.48472926 6.05296706 -24.14477539 4.20483398 C-21.80417771 3.68565399 -19.46948296 3.14456436 -17.13476562 2.59960938 C-15.63831341 2.2565338 -14.14157745 1.91469307 -12.64453125 1.57421875 C-11.95172562 1.41491379 -11.25891998 1.25560883 -10.54512024 1.09147644 C-6.9689625 0.3045242 -3.66312016 -0.17822497 0 0 Z " fill="#F9FBFC" transform="translate(417,309)"/>
<path d="M0 0 C4.5731275 0.55424109 7.96992443 1.76856821 12.03515625 3.9140625 C13.17533203 4.51089844 14.31550781 5.10773438 15.49023438 5.72265625 C16.6810712 6.35661755 17.87182621 6.99073254 19.0625 7.625 C20.21427734 8.22957031 21.36605469 8.83414062 22.55273438 9.45703125 C29.41523296 13.06725204 36.24388892 16.73873859 43.06030273 20.43505859 C45.11522926 21.52899423 47.20199365 22.56424092 49.30932617 23.5534668 C52 25 52 25 53.0546875 27.37109375 C52.98485847 30.72787501 51.9557853 32.26570126 50.125 35.0625 C46.37189165 41.53006579 45.11048925 47.88747217 46.40234375 55.3125 C46.94758132 57.41112356 46.94758132 57.41112356 48 60 C47.34 60.474375 46.68 60.94875 46 61.4375 C43.10341024 65.14875563 43.65030554 68.45397207 44 73 C46.31 73 48.62 73 51 73 C48.33298651 76.17915738 44.91896029 77.6866851 41.25 79.4375 C36.13063779 81.91786024 31.0746702 84.47770249 26.07421875 87.19140625 C25.05875977 87.73804932 24.04330078 88.28469238 22.99707031 88.84790039 C20.9864507 89.93359006 18.98165097 91.03014073 16.98339844 92.13842773 C11.71122379 94.96501533 8.01292099 96.73389327 2 96 C2.30678478 92.946097 3.03558729 91.96502628 5.265625 89.7734375 C6.25046875 88.98195313 7.2353125 88.19046875 8.25 87.375 C9.04929932 86.72748779 9.04929932 86.72748779 9.86474609 86.06689453 C14.79742601 82.09514497 19.82641542 78.24444413 24.86328125 74.40625 C29.29684286 71.00516164 33.65409833 67.51203792 38 64 C37.84660156 63.24332031 37.69320312 62.48664063 37.53515625 61.70703125 C35.65934582 52.21844275 35.58789259 44.30384287 38 35 C37.22398437 34.40574219 36.44796875 33.81148438 35.6484375 33.19921875 C32.09331025 30.47345421 28.54611163 27.73747757 25 25 C24.09483643 24.30293945 24.09483643 24.30293945 23.17138672 23.59179688 C17.07730117 18.89107019 11.02690617 14.14090017 5.1875 9.125 C4.39730469 8.44695312 3.60710937 7.76890625 2.79296875 7.0703125 C0.73777502 4.69721299 0.32786325 3.08513947 0 0 Z " fill="#F2E878" transform="translate(434,361)"/>
<path d="M0 0 C3.96 0 7.92 0 12 0 C12.10022461 1.06621582 12.20044922 2.13243164 12.30371094 3.23095703 C16.83802267 51.08063626 16.83802267 51.08063626 32.36328125 96.3125 C33.70557509 99.18188045 34.57362018 101.83613816 35 105 C31.25 108 31.25 108 29 108 C28.67 108.99 28.34 109.98 28 111 C24.67864153 109.97634406 23.9209385 108.86747011 22.10546875 105.82421875 C21.44876109 104.45350679 20.81068236 103.07377558 20.1875 101.6875 C19.84348145 100.93259277 19.49946289 100.17768555 19.14501953 99.39990234 C8.29048895 74.93358101 2.71846121 48.9244498 1.1730957 22.28125 C1.02219736 19.83557638 1.02219736 19.83557638 0.4609375 16.79296875 C-0.10397702 13.36996975 -0.09520654 10.09189304 -0.0625 6.625 C-0.05347656 5.37976563 -0.04445313 4.13453125 -0.03515625 2.8515625 C-0.02355469 1.91054688 -0.01195312 0.96953125 0 0 Z " fill="#F7FAFB" transform="translate(380,361)"/>
<path d="M0 0 C1.36328125 1.3671875 1.36328125 1.3671875 1.36328125 3.3671875 C2.02328125 3.3671875 2.68328125 3.3671875 3.36328125 3.3671875 C8.23610769 11.4325554 11.8118204 18.71490255 10.36328125 28.3671875 C7.81598038 37.3888781 3.233369 45.43512491 -4.68359375 50.73828125 C-6.6370502 51.771796 -8.56501659 52.60192609 -10.63671875 53.3671875 C-12.21453125 53.9859375 -12.21453125 53.9859375 -13.82421875 54.6171875 C-23.51057506 56.52270022 -31.26747074 56.09548519 -39.97265625 51.203125 C-46.60029815 46.6356885 -50.5450806 40.69436993 -53.63671875 33.3671875 C-54.06984375 32.4596875 -54.50296875 31.5521875 -54.94921875 30.6171875 C-56.8611947 21.57875573 -54.76707827 14.41566185 -49.9140625 6.7421875 C-48.32094017 4.22950307 -48.32094017 4.22950307 -48.63671875 0.3671875 C-47.77820313 0.21056641 -47.77820313 0.21056641 -46.90234375 0.05078125 C-44.27173176 -0.74293789 -42.59583549 -1.9452608 -40.38671875 -3.5703125 C-27.26833729 -12.49423594 -12.06843897 -9.3355059 0 0 Z M-41.484375 5.19921875 C-46.04943821 10.88591911 -48.98342455 16.79338374 -48.76171875 24.1796875 C-47.60447358 32.25551667 -42.7572885 39.07000976 -36.38671875 43.9921875 C-31.81935792 47.1528012 -28.18372508 47.71937838 -22.63671875 47.3671875 C-14.76552056 45.8319786 -7.09889448 42.73002469 -2 36.3046875 C1.99347833 30.07989607 3.33203622 24.46870448 1.9375 17.125 C-0.12834386 9.79949234 -4.32285688 4.3814957 -10.82421875 0.4296875 C-21.44482071 -3.58253991 -33.09428757 -3.11991656 -41.484375 5.19921875 Z " fill="#E79C23" transform="translate(534.63671875,386.6328125)"/>
<path d="M0 0 C10.90130785 9.69575145 10.90130785 9.69575145 12.1015625 15.67578125 C12.34977647 20.77617789 11.93366611 23.86480632 8.59765625 27.8515625 C7.32607249 29.10288198 6.01430697 30.31509726 4.66015625 31.4765625 C4.13164062 31.93289063 3.603125 32.38921875 3.05859375 32.859375 C-2.12638105 36.51184493 -8.26460648 36.49174575 -14.33984375 35.4765625 C-22.14402547 32.345104 -28.62362565 24.9089987 -32.33984375 17.4765625 C-33.02750514 13.98635656 -33.13094337 10.95537237 -32.33984375 7.4765625 C-25.21694058 -1.9070882 -10.55518766 -7.20968592 0 0 Z " fill="#FBFCFC" transform="translate(438.33984375,472.5234375)"/>
<path d="M0 0 C0.99 0.33 1.98 0.66 3 1 C5.37657411 8.01003875 5.86260973 15.42171798 6.625 22.75 C6.82609375 24.54824219 6.82609375 24.54824219 7.03125 26.3828125 C7.83587651 33.95287008 8.17321456 41.38905733 8 49 C8.9075 49.04125 9.815 49.0825 10.75 49.125 C18.30837176 50.19151872 25.90956113 54.39930234 31 60 C30 63 30 63 26.9375 64.6875 C25.968125 65.120625 24.99875 65.55375 24 66 C23.45472656 65.60167969 22.90945313 65.20335937 22.34765625 64.79296875 C13.95924297 58.8995707 6.36241818 55.85216291 -4 57 C-9.75627453 58.06269684 -14.00974622 59.85479207 -18.6875 63.375 C-22.41107225 66.07823394 -22.41107225 66.07823394 -25.1171875 65.71875 C-27.0625 64.875 -27.0625 64.875 -30 63 C-28.4801342 59.03590556 -26.09849064 57.3028499 -22.6875 54.875 C-21.74261719 54.19179688 -20.79773438 53.50859375 -19.82421875 52.8046875 C-14.97188892 49.7040286 -11.73438587 48.90445153 -6 49 C-6.01522705 48.24066162 -6.0304541 47.48132324 -6.04614258 46.69897461 C-6.1436376 37.91314737 -5.56178385 29.30098879 -4.6875 20.5625 C-4.56809156 19.22723746 -4.44894994 17.89195104 -4.33007812 16.55664062 C-4.14155273 14.64334961 -4.14155273 14.64334961 -3.94921875 12.69140625 C-3.83924561 11.54873291 -3.72927246 10.40605957 -3.6159668 9.22875977 C-2.9488228 5.73174062 -1.72795961 3.0966231 0 0 Z " fill="#F9FAF6" transform="translate(511,322)"/>
<path d="M0 0 C4.99076 2.88259414 9.52405333 6.6622946 11.8125 12.046875 C12 15.359375 12 15.359375 11.8125 18.046875 C9.8125 17.046875 9.8125 17.046875 8.625 14.359375 C5.93238746 9.43839346 2.20103656 6.36057011 -2.6875 3.671875 C-10.47619853 1.72470037 -16.33141129 4.11883065 -23.1875 7.546875 C-23.8475 8.041875 -24.5075 8.536875 -25.1875 9.046875 C-25.1875 10.036875 -25.1875 11.026875 -25.1875 12.046875 C-22.84021292 14.35130278 -22.84021292 14.35130278 -19.875 16.609375 C-18.88886719 17.39441406 -17.90273438 18.17945313 -16.88671875 18.98828125 C-15.03227436 20.40259701 -13.12802486 21.75319176 -11.1875 23.046875 C-10.73925781 25.36938477 -10.73925781 25.36938477 -10.640625 28.23828125 C-10.60066406 29.26501953 -10.56070313 30.29175781 -10.51953125 31.34960938 C-10.49246094 32.42533203 -10.46539063 33.50105469 -10.4375 34.609375 C-10.39496094 35.68896484 -10.35242188 36.76855469 -10.30859375 37.88085938 C-10.11223415 43.66619498 -10.11223415 43.66619498 -10.1875 46.046875 C-11.1875 47.046875 -11.1875 47.046875 -14.375 47.296875 C-20.60577452 46.88829962 -24.56623887 44.04631506 -29.1875 40.046875 C-33.70253011 34.48307805 -37.21367079 28.81656892 -37.45703125 21.52734375 C-36.68060098 14.38193477 -33.41690587 7.93523266 -28.1875 3.046875 C-19.69311725 -2.85069829 -9.60920225 -4.24406433 0 0 Z " fill="#F9C71B" transform="translate(523.1875,386.953125)"/>
<path d="M0 0 C1.21875 1.62109375 1.21875 1.62109375 2 4 C0.71875 6.78515625 0.71875 6.78515625 -1.5 10.0625 C-1.90581299 10.66392822 -2.31162598 11.26535645 -2.72973633 11.88500977 C-4.13180202 13.9390062 -5.56332948 15.97007287 -7 18 C-7.78383057 19.12293457 -7.78383057 19.12293457 -8.58349609 20.26855469 C-16.18355018 31.10646164 -24.3330445 40.99030112 -33.55078125 50.48144531 C-35.42405474 52.44434307 -37.18620203 54.49065195 -38.9375 56.5625 C-41.0093742 58.98925442 -43.13867178 61.00139501 -45.625 63 C-48.80781579 65.61117925 -50.57376133 68.37209472 -52.609375 71.9140625 C-54.72741959 75.09112939 -57.43849067 77.55684414 -60.23046875 80.140625 C-62.07066392 81.8553733 -62.07066392 81.8553733 -62.8046875 83.90234375 C-64.72455857 87.27152926 -67.81079764 89.10157624 -70.9375 91.3125 C-71.95348267 92.04315674 -71.95348267 92.04315674 -72.98999023 92.78857422 C-78.52999691 96.74132345 -84.2176775 100.4128921 -90 104 C-92.50537704 105.59582969 -95.00285832 107.20382316 -97.5 108.8125 C-98.10013916 109.19809082 -98.70027832 109.58368164 -99.31860352 109.98095703 C-101.89215022 111.63551094 -104.45424118 113.30282746 -107 115 C-108.32 115 -109.64 115 -111 115 C-110.01184667 108.71175153 -107.2378707 102.4188046 -102.0234375 98.5234375 C-100.55212587 97.73695456 -99.060813 96.98709609 -97.5546875 96.26953125 C-92.39964978 93.70777703 -87.7574151 90.224825 -83 87 C-81.47981057 85.99902141 -79.95903474 84.99893247 -78.4375 84 C-74.98894194 81.69047298 -71.57548748 79.33508373 -68.1875 76.9375 C-67.29417969 76.30714844 -66.40085937 75.67679688 -65.48046875 75.02734375 C-62.91542477 73.08745316 -62.91542477 73.08745316 -61.05859375 70.48046875 C-58.62398089 67.54692195 -56.22052041 66.17516946 -52.875 64.375 C-48.27222541 61.94302126 -48.27222541 61.94302126 -45 58 C-44.34 58 -43.68 58 -43 58 C-42.773125 57.4225 -42.54625 56.845 -42.3125 56.25 C-41 54 -41 54 -38.67578125 52.16796875 C-35.97922264 49.98316579 -34.02390983 47.77927764 -31.875 45.0625 C-27.94638599 40.15337764 -23.92177815 35.3455961 -19.80615234 30.59204102 C-11.95538673 21.41835634 -5.87523526 10.52646317 0 0 Z " fill="#0F3578" transform="translate(637,476)"/>
<path d="M0 0 C1.48285242 0.95262034 2.96118201 1.91228405 4.4375 2.875 C5.67306641 3.67550781 5.67306641 3.67550781 6.93359375 4.4921875 C9 6 9 6 10 8 C9.91008832 9.67061696 9.75373244 11.33793042 9.5625 13 C9.1186296 16.89789638 9.11180812 20.35613685 9.5 24.25 C9.52928586 27.34453901 9.4010458 28.53813208 7.3515625 30.8984375 C4.97724174 32.73957746 2.51710267 34.36018164 0 36 C-1.80603877 37.41940116 -3.59799046 38.85692012 -5.375 40.3125 C-7.87627975 42.33337523 -10.32181684 44.21454456 -13 46 C-13.53544513 42.2936246 -14.0507383 38.58471361 -14.5625 34.875 C-14.71396484 33.82828125 -14.86542969 32.7815625 -15.02148438 31.703125 C-16.61615885 19.98412188 -16.61615885 19.98412188 -13.90625 14.98046875 C-9.66595889 9.57409759 -4.95432335 4.75615042 0 0 Z " fill="#057CB6" transform="translate(455,393)"/>
<path d="M0 0 C2.57341009 3.21274546 4.45787899 6.57815493 6.35546875 10.2265625 C6.66196854 10.81545258 6.96846832 11.40434265 7.28425598 12.01107788 C7.92723307 13.24896092 8.56837208 14.48780024 9.20776367 15.72753906 C10.18940653 17.62869239 11.17927423 19.52540131 12.16992188 21.421875 C12.7947687 22.62734623 13.41913472 23.83306683 14.04296875 25.0390625 C14.61039795 26.13428223 15.17782715 27.22950195 15.76245117 28.35791016 C17 31 17 31 17 33 C6.11 33 -4.78 33 -16 33 C-14.52793526 28.58380579 -13.05881524 24.8711033 -10.99609375 20.76171875 C-10.13274414 19.03791992 -10.13274414 19.03791992 -9.25195312 17.27929688 C-8.95426025 16.69011475 -8.65656738 16.10093262 -8.34985352 15.49389648 C-7.43233664 13.6772769 -6.52138823 11.85747416 -5.61132812 10.03710938 C-1.14038584 1.14038584 -1.14038584 1.14038584 0 0 Z " fill="#F9F9FB" transform="translate(417,696)"/>
<path d="M0 0 C-0.14260523 4.7059727 -2.3492265 6.86092236 -5.58984375 9.921875 C-9.15908665 12.99940697 -12.84458227 15.91906154 -16.58911133 18.78027344 C-19.52566918 21.02544116 -22.36894904 23.28673403 -25.0703125 25.8125 C-27.63495075 28.15567924 -29.99534813 30.2548982 -33 32 C-35.40857558 31.86593341 -36.72911559 31.18257118 -38.80859375 29.984375 C-43.1963917 28.01338555 -48.27979421 28.78759074 -53 29 C-52.62109375 27.0703125 -52.62109375 27.0703125 -52 25 C-50.0625 23.875 -50.0625 23.875 -48 23 C-47.34 22.34 -46.68 21.68 -46 21 C-44.00427407 20.32064557 -42.00354131 19.65594715 -40 19 C-37.92178747 18.01294575 -35.86371623 16.98271916 -33.82421875 15.91796875 C-32.66599609 15.31533203 -31.50777344 14.71269531 -30.31445312 14.09179688 C-29.71769775 13.77847412 -29.12094238 13.46515137 -28.50610352 13.14233398 C-26.70488703 12.19662883 -24.900654 11.25691413 -23.09570312 10.31835938 C-17.27784733 7.2819743 -11.50677112 4.21795022 -5.87817383 0.84106445 C-4 0 -4 0 0 0 Z " fill="#F7DF5E" transform="translate(589,361)"/>
<path d="M0 0 C0.66 1.32 1.32 2.64 2 4 C1.34 4.474375 0.68 4.94875 0 5.4375 C-2.89658976 9.14875563 -2.34969446 12.45397207 -2 17 C0.31 17 2.62 17 5 17 C2.33298651 20.17915738 -1.08103971 21.6866851 -4.75 23.4375 C-9.86936221 25.91786024 -14.9253298 28.47770249 -19.92578125 31.19140625 C-21.44896973 32.01137085 -21.44896973 32.01137085 -23.00292969 32.84790039 C-25.0135493 33.93359006 -27.01834903 35.03014073 -29.01660156 36.13842773 C-34.28877621 38.96501533 -37.98707901 40.73389327 -44 40 C-43.69321522 36.946097 -42.96441271 35.96502628 -40.734375 33.7734375 C-39.74953125 32.98195313 -38.7646875 32.19046875 -37.75 31.375 C-37.21713379 30.9433252 -36.68426758 30.51165039 -36.13525391 30.06689453 C-31.19973424 26.09285842 -26.16744672 22.24044853 -21.12890625 18.3984375 C-13.28687007 12.52305892 -13.28687007 12.52305892 -6 6 C-5.154375 5.525625 -4.30875 5.05125 -3.4375 4.5625 C-0.7088869 3.17335949 -0.7088869 3.17335949 0 0 Z " fill="#FAE163" transform="translate(480,417)"/>
<path d="M0 0 C4.62 0 9.24 0 14 0 C13.1227758 36.6316726 13.1227758 36.6316726 9 49 C7.68 49 6.36 49 5 49 C2.81110126 42.45233769 2.1132647 35.84439778 1.375 29 C1.24311279 27.80205811 1.11122559 26.60411621 0.9753418 25.36987305 C0.08177226 16.83330922 -0.27655707 8.57326931 0 0 Z " fill="#F8D956" transform="translate(505,451)"/>
<path d="M0 0 C0.99 0.33 1.98 0.66 3 1 C5.3856802 8.02831684 5.86337206 15.46434474 6.625 22.8125 C6.7590625 24.01970703 6.893125 25.22691406 7.03125 26.47070312 C7.79524216 33.67795567 8.18364732 40.75335105 8 48 C7.55019775 47.35853027 7.10039551 46.71706055 6.63696289 46.05615234 C4.65992241 43.57283618 3.50454084 43.24143984 0.4375 42.625 C-0.34753906 42.45226562 -1.13257813 42.27953125 -1.94140625 42.1015625 C-2.62074219 42.06804687 -3.30007813 42.03453125 -4 42 C-4.66 42.66 -5.32 43.32 -6 44 C-5.60427039 34.02344829 -5.13342592 24.06102267 -4.125 14.125 C-4.05877441 13.39555176 -3.99254883 12.66610352 -3.92431641 11.91455078 C-3.42846246 7.3799717 -2.26635205 3.95063554 0 0 Z " fill="#FBF6BC" transform="translate(511,322)"/>
<path d="M0 0 C5.64862893 2.88707701 10.28440505 6.54729788 15.13671875 10.62109375 C18.70608502 13.58663817 22.39368933 16.3861038 26.1015625 19.17578125 C28.14864153 21.14283044 28.74891232 22.19618758 29 25 C28.505 25.495 28.505 25.495 28 26 C21.12974113 25.78501231 15.88262065 22.65750957 9.9375 19.4375 C8.92486084 18.89899414 7.91222168 18.36048828 6.86889648 17.80566406 C-0.83966945 13.6857485 -8.46957129 9.43734101 -16 5 C-11.14111265 2.37875814 -6.48662694 2 -1 2 C-0.67 1.34 -0.34 0.68 0 0 Z " fill="#F8D145" transform="translate(559,432)"/>
<path d="M0 0 C2.97 0.495 2.97 0.495 6 1 C6.6796875 2.6875 6.6796875 2.6875 7 5 C5.8203125 7.375 5.8203125 7.375 4.125 10 C0.11749971 16.92963592 -0.21555719 23.34283015 0.1484375 31.20703125 C0 34 0 34 -2.5 36.375 C-3.325 36.91125 -4.15 37.4475 -5 38 C-7.86198511 35.69194749 -8.91161982 34.38298076 -9.75 30.75 C-10.25113982 23.23290276 -9.82365165 17.29460661 -8 10 C-10.31 8.02 -12.62 6.04 -15 4 C-13 2 -13 2 -9.9609375 1.8046875 C-8.18589844 1.83949219 -8.18589844 1.83949219 -6.375 1.875 C-4.59222656 1.90207031 -4.59222656 1.90207031 -2.7734375 1.9296875 C-1.85820312 1.95289063 -0.94296875 1.97609375 0 2 C0 1.34 0 0.68 0 0 Z " fill="#F6F8F4" transform="translate(480,386)"/>
<path d="M0 0 C4.99076 2.88259414 9.52405333 6.6622946 11.8125 12.046875 C12 15.359375 12 15.359375 11.8125 18.046875 C9.8125 17.046875 9.8125 17.046875 8.625 14.359375 C5.93238746 9.43839346 2.20103656 6.36057011 -2.6875 3.671875 C-10.61316198 1.6904595 -16.51752508 4.1413111 -23.4375 7.734375 C-28.1322418 11.68222606 -30.42809634 16.97164574 -31.1875 23.046875 C-32.8375 23.046875 -34.4875 23.046875 -36.1875 23.046875 C-36.90101838 16.6252096 -35.61585297 12.80506208 -32.109375 7.38671875 C-24.25756262 -2.17270323 -11.3429723 -5.00981277 0 0 Z " fill="#FBCB21" transform="translate(523.1875,386.953125)"/>
<path d="M0 0 C0.556875 0.23332031 1.11375 0.46664063 1.6875 0.70703125 C0.48836322 5.10386613 -0.7413115 7.80544059 -4.3125 10.70703125 C-4.9725 10.70703125 -5.6325 10.70703125 -6.3125 10.70703125 C-6.3125 11.36703125 -6.3125 12.02703125 -6.3125 12.70703125 C-5.6525 13.03703125 -4.9925 13.36703125 -4.3125 13.70703125 C-6.65751097 15.05910964 -9.01137359 16.38821237 -11.375 17.70703125 C-12.03177734 18.08859375 -12.68855469 18.47015625 -13.36523438 18.86328125 C-17.95416037 21.39510249 -21.07621972 22.14282051 -26.3125 21.70703125 C-26.0135301 18.60343897 -25.24417634 17.63985013 -22.9765625 15.41015625 C-19.77018188 12.8219724 -16.56011527 10.24321877 -13.3125 7.70703125 C-12.28898437 6.89363281 -11.26546875 6.08023437 -10.2109375 5.2421875 C-2.89639597 -0.36694206 -2.89639597 -0.36694206 0 0 Z " fill="#F9E363" transform="translate(462.3125,435.29296875)"/>
<path d="M0 0 C10.7055063 0.84964336 18.50293075 4.05657683 27.88671875 9.28125 C30.88777668 10.93804484 33.92416635 12.48744612 37 14 C34.50907189 15.24546405 33.58919267 14.7767578 31 14 C31 14.66 31 15.32 31 16 C24.87694862 17.44210863 21.80197526 16.5065861 16.5625 13.5625 C15.92634766 13.22412109 15.29019531 12.88574219 14.63476562 12.53710938 C13.08104605 11.70768013 11.5392055 10.85606297 10 10 C10 9.34 10 8.68 10 8 C9.34 8 8.68 8 8 8 C8 7.34 8 6.68 8 6 C6.02 5.34 4.04 4.68 2 4 C2 3.34 2 2.68 2 2 C1.34 2 0.68 2 0 2 C0 1.34 0 0.68 0 0 Z " fill="#FEE861" transform="translate(449,372)"/>
<path d="M0 0 C-0.33 0.99 -0.66 1.98 -1 3 C-1.66 3 -2.32 3 -3 3 C-3 3.66 -3 4.32 -3 5 C-3.639375 5.28875 -4.27875 5.5775 -4.9375 5.875 C-7.15206079 6.82823451 -7.15206079 6.82823451 -8 9 C-10.51181636 10.26255319 -13.07287274 11.37112906 -15.65234375 12.48828125 C-18.52645435 14.33899806 -18.8804067 15.85275615 -20 19 C-22.625 19.8125 -22.625 19.8125 -25 20 C-25.12375 19.38125 -25.2475 18.7625 -25.375 18.125 C-25.87197356 15.80879168 -25.87197356 15.80879168 -28 14 C-27.87329102 12.03613281 -27.87329102 12.03613281 -27 10 C-24.24728783 7.81771161 -21.05534304 6.35439492 -17.9375 4.75 C-17.10283203 4.29109375 -16.26816406 3.8321875 -15.40820312 3.359375 C-9.96159148 0.5065901 -6.14135679 -0.53958742 0 0 Z " fill="#F9D843" transform="translate(578,369)"/>
<path d="M0 0 C0.33 0 0.66 0 1 0 C3.38297872 20.53191489 3.38297872 20.53191489 3 30 C2.59910156 29.36835938 2.19820312 28.73671875 1.78515625 28.0859375 C-0.30550094 25.64302516 -1.45584218 25.2494024 -4.5625 24.625 C-5.34753906 24.45226562 -6.13257813 24.27953125 -6.94140625 24.1015625 C-7.62074219 24.06804687 -8.30007813 24.03453125 -9 24 C-9.66 24.66 -10.32 25.32 -11 26 C-10.67 19.4 -10.34 12.8 -10 6 C-9.67 6 -9.34 6 -9 6 C-8.34 8.97 -7.68 11.94 -7 15 C-6.01 14.01 -5.02 13.02 -4 12 C-3.01 12 -2.02 12 -1 12 C-0.67 8.04 -0.34 4.08 0 0 Z " fill="#F5EA93" transform="translate(516,340)"/>
<path d="M0 0 C1.21875 1.62109375 1.21875 1.62109375 2 4 C0.71875 6.78515625 0.71875 6.78515625 -1.5 10.0625 C-1.90581299 10.66392822 -2.31162598 11.26535645 -2.72973633 11.88500977 C-4.13180202 13.9390062 -5.56332948 15.97007287 -7 18 C-7.78383057 19.12293457 -7.78383057 19.12293457 -8.58349609 20.26855469 C-16.18336268 31.10619426 -24.33196443 40.98758467 -33.55078125 50.47705078 C-35.43336505 52.45541293 -37.18842657 54.5284544 -38.9375 56.625 C-41.91066062 60.09874378 -45.17736239 62.5035836 -49 65 C-49.66 64.34 -50.32 63.68 -51 63 C-50.38125 62.731875 -49.7625 62.46375 -49.125 62.1875 C-46.7004767 61.04443152 -46.7004767 61.04443152 -45 58 C-44.34 58 -43.68 58 -43 58 C-42.773125 57.4225 -42.54625 56.845 -42.3125 56.25 C-41 54 -41 54 -38.67578125 52.16796875 C-35.97922264 49.98316579 -34.02390983 47.77927764 -31.875 45.0625 C-27.94638599 40.15337764 -23.92177815 35.3455961 -19.80615234 30.59204102 C-11.95538673 21.41835634 -5.87523526 10.52646317 0 0 Z " fill="#0E2B65" transform="translate(637,476)"/>
<path d="M0 0 C0.66 1.32 1.32 2.64 2 4 C1.34 4.474375 0.68 4.94875 0 5.4375 C-2.89658976 9.14875563 -2.34969446 12.45397207 -2 17 C0.31 17 2.62 17 5 17 C3.9375 18.5625 3.9375 18.5625 2 20 C-1.6875 19.6875 -1.6875 19.6875 -5 19 C-5.33 18.01 -5.66 17.02 -6 16 C-7.98 16.33 -9.96 16.66 -12 17 C-12.33 16.34 -12.66 15.68 -13 15 C-14.65 15.66 -16.3 16.32 -18 17 C-14.82777517 13.73714017 -11.57989692 10.80586515 -8 8 C-7.34 7.34 -6.68 6.68 -6 6 C-5.154375 5.525625 -4.30875 5.05125 -3.4375 4.5625 C-0.7088869 3.17335949 -0.7088869 3.17335949 0 0 Z " fill="#FBE992" transform="translate(480,417)"/>
<path d="M0 0 C0.67095703 0.58007812 0.67095703 0.58007812 1.35546875 1.171875 C4.8521026 4.18390075 8.37407463 7.14321031 12 10 C11.67 10.99 11.34 11.98 11 13 C6.05 13 1.1 13 -4 13 C-3.55966813 7.80408388 -3.11696661 4.33664919 0 0 Z " fill="#FAD83A" transform="translate(496,397)"/>
<path d="M0 0 C4.81033104 2.54664585 8.32442148 4.99027798 12 9 C6.28341664 9.45732667 3.51350747 8.52273754 -1 5 C-1.66 6.65 -2.32 8.3 -3 10 C-4.60746056 9.57476184 -6.21089836 9.13429874 -7.8125 8.6875 C-8.70582031 8.44386719 -9.59914063 8.20023437 -10.51953125 7.94921875 C-13.05247738 6.9799181 -14.2716496 6.04990396 -16 4 C-10.87080814 1.89571616 -6.4389165 1.78244334 -1 2 C-0.67 1.34 -0.34 0.68 0 0 Z " fill="#F9D85F" transform="translate(559,432)"/>
<path d="M0 0 C3.4263192 1.54943106 6.23053905 3.56009704 9.1875 5.875 C10.50814453 6.89207031 10.50814453 6.89207031 11.85546875 7.9296875 C14.0339826 10.03280652 14.77382763 11.01452476 15 14 C14.67 14.33 14.34 14.66 14 15 C9.50262491 14.66057546 6.20186258 14.32045009 3 11 C1.8125 8.375 1.8125 8.375 1 6 C0.67 5.67 0.34 5.34 0 5 C-0.04063832 3.33382885 -0.042721 1.66611905 0 0 Z " fill="#EED859" transform="translate(573,443)"/>
<path d="M0 0 C0.99 0.66 1.98 1.32 3 2 C1.9427871 4.76501836 0.80669719 7.3711414 -0.5625 10 C-1.8771485 12.74361426 -2.56025027 15.00970184 -3 18 C-4.65 18 -6.3 18 -8 18 C-8.6006222 11.27303135 -7.35565212 7.22678255 -3 2 C-2.01 1.34 -1.02 0.68 0 0 Z " fill="#FDF7D9" transform="translate(495,392)"/>
<path d="M0 0 C0.66 0.33 1.32 0.66 2 1 C2 2.32 2 3.64 2 5 C2.66 5.66 3.32 6.32 4 7 C3.030625 7.268125 2.06125 7.53625 1.0625 7.8125 C0.051875 8.204375 -0.95875 8.59625 -2 9 C-2.33 9.99 -2.66 10.98 -3 12 C-5.95664519 13.4783226 -8.74229737 13.06032783 -12 13 C-11.71248893 9.78577367 -10.90082842 8.90655283 -8.49609375 6.640625 C-7.48675781 5.85171875 -6.47742188 5.0628125 -5.4375 4.25 C-4.42558594 3.45078125 -3.41367187 2.6515625 -2.37109375 1.828125 C-1.58863281 1.22484375 -0.80617188 0.6215625 0 0 Z " fill="#FDEB6A" transform="translate(448,444)"/>
<path d="M0 0 C0 2.3125 0 2.3125 -1 5 C-3.53696583 6.41074268 -6.23432841 7.15304575 -9 8 C-9.928125 8.433125 -10.85625 8.86625 -11.8125 9.3125 C-12.8953125 9.6528125 -12.8953125 9.6528125 -14 10 C-14.99 9.34 -15.98 8.68 -17 8 C-17.66 7.67 -18.32 7.34 -19 7 C-17.56542672 6.0165504 -16.12722594 5.03839079 -14.6875 4.0625 C-13.88699219 3.51722656 -13.08648437 2.97195313 -12.26171875 2.41015625 C-8.13441961 -0.16316843 -4.76532061 -0.08991171 0 0 Z " fill="#FCE854" transform="translate(512,385)"/>
<path d="M0 0 C-0.83144531 0.32871094 -0.83144531 0.32871094 -1.6796875 0.6640625 C-2.40414062 0.98117187 -3.12859375 1.29828125 -3.875 1.625 C-4.59429688 1.92664063 -5.31359375 2.22828125 -6.0546875 2.5390625 C-8.851336 4.63935675 -9.19618982 6.64267161 -10 10 C-10.232925 12.01427185 -10.39759257 14.03739312 -10.5 16.0625 C-11.72255535 34.72255535 -11.72255535 34.72255535 -15 38 C-14.94013916 37.35893311 -14.88027832 36.71786621 -14.81860352 36.05737305 C-14.13479178 28.64665441 -13.52423783 21.23147385 -12.9375 13.8125 C-12.84662109 12.66974609 -12.75574219 11.52699219 -12.66210938 10.34960938 C-12.440854 7.56644961 -12.22016009 4.78324658 -12 2 C-10.75579353 1.4654744 -9.50429064 0.94791389 -8.25 0.4375 C-7.55390625 0.14746094 -6.8578125 -0.14257812 -6.140625 -0.44140625 C-3.69987216 -1.07831803 -2.3596345 -0.80248831 0 0 Z " fill="#2E4F65" transform="translate(531,449)"/>
<path d="M0 0 C3 1 3 1 4.8125 4.3125 C6 8 6 8 5.1875 10.4375 C4.795625 10.953125 4.40375 11.46875 4 12 C4.66 12.33 5.32 12.66 6 13 C3.36 13 0.72 13 -2 13 C-3.45295405 4.80743982 -3.45295405 4.80743982 -1.5625 1.4375 C-1.046875 0.963125 -0.53125 0.48875 0 0 Z " fill="#FDF7DF" transform="translate(480,421)"/>
<path d="M0 0 C0.33 0 0.66 0 1 0 C3.06236393 8.24945571 2.2188159 13.46439919 -1.61328125 20.8984375 C-3 23 -3 23 -6 25 C-5.42360427 22.59835113 -4.76427357 20.33441948 -3.9375 18 C-2.40088411 12.79827065 -2.84136895 7.3670172 -3 2 C-2.34 2.33 -1.68 2.66 -1 3 C-0.67 2.01 -0.34 1.02 0 0 Z " fill="#EFAD1B" transform="translate(535,401)"/>
<path d="M0 0 C6.81598387 -0.33278764 11.92122066 -0.24201565 18 3 C17 4.5625 17 4.5625 15 6 C12.23385218 5.96726452 9.73969453 5.49404328 7 5 C7 5.66 7 6.32 7 7 C6.01 7.33 5.02 7.66 4 8 C2.68 5.36 1.36 2.72 0 0 Z " fill="#FDF6D7" transform="translate(537,389)"/>
<path d="M0 0 C0.9075 0.680625 1.815 1.36125 2.75 2.0625 C7.91898395 5.09994417 13.31296588 3.85912502 19 3 C17.68 5.97 16.36 8.94 15 12 C11.62626594 10.31313297 8.45883177 8.53618621 5.25 6.5625 C4.26515625 5.96566406 3.2803125 5.36882812 2.265625 4.75390625 C1.51796875 4.17511719 0.7703125 3.59632813 0 3 C0 2.01 0 1.02 0 0 Z " fill="#027AB6" transform="translate(435,458)"/>
<path d="M0 0 C3.7640392 1.44345724 7.34084701 3.11834347 10.9375 4.9375 C11.93652344 5.44152344 12.93554688 5.94554687 13.96484375 6.46484375 C15.46724609 7.22474609 15.46724609 7.22474609 17 8 C18.99953747 9.00092453 20.99940405 10.00119278 23 11 C20.59454362 12.20272819 19.05003047 12.10071472 16.375 12.0625 C15.14910156 12.04896484 15.14910156 12.04896484 13.8984375 12.03515625 C12.95871094 12.01775391 12.95871094 12.01775391 12 12 C10 8.25 10 8.25 10 6 C8.02 6 6.04 6 4 6 C4 5.34 4 4.68 4 4 C2.35 4 0.7 4 -1 4 C-0.67 2.68 -0.34 1.36 0 0 Z " fill="#F4E465" transform="translate(463,375)"/>
<path d="M0 0 C9.76631564 4.82674136 19.44559123 9.76470752 29 15 C26 16 26 16 23.46875 14.99609375 C22.4890625 14.48175781 21.509375 13.96742188 20.5 13.4375 C19.4378125 12.88835937 18.375625 12.33921875 17.28125 11.7734375 C15.14196058 10.6172025 13.01596451 9.43591905 10.90625 8.2265625 C9.9471875 7.67742187 8.988125 7.12828125 8 6.5625 C7.13375 6.04816406 6.2675 5.53382813 5.375 5.00390625 C2.65829829 3.85556359 1.69331397 3.92958035 -1 5 C-2.3479743 5.63654342 -3.68596724 6.29605388 -5 7 C-3.6975667 4.09457188 -2.29113732 2.1907039 0 0 Z " fill="#264A6B" transform="translate(543,437)"/>
<path d="M0 0 C-0.15481795 2.70931419 -0.48172081 4.46584039 -2.40234375 6.4453125 C-3.89771708 7.67679642 -5.4462924 8.8429837 -7 10 C-7 9.34 -7 8.68 -7 8 C-9.64 7.67 -12.28 7.34 -15 7 C-10.28461674 2.97805546 -6.33797061 0 0 0 Z " fill="#EDD76B" transform="translate(589,361)"/>
<path d="M0 0 C1.65 0 3.3 0 5 0 C4.67 1.65 4.34 3.3 4 5 C7.96697886 6.80317221 11.6822542 7.49202991 16 8 C15.01 8.99 14.02 9.98 13 11 C12.0925 10.505 11.185 10.01 10.25 9.5 C5.04026795 7.21201459 -0.425617 7.75285987 -6 8 C-5.625 6.0703125 -5.625 6.0703125 -5 4 C-3 2.875 -3 2.875 -1 2 C-0.67 1.34 -0.34 0.68 0 0 Z " fill="#F2E28C" transform="translate(542,382)"/>
<path d="M0 0 C0.99 0.33 1.98 0.66 3 1 C4.69166838 6.16404031 5.22514824 10.5964423 5 16 C3.47700477 13.06279492 2.19899698 10.0831351 1 7 C1 8.65 1 10.3 1 12 C-0.98 12.99 -0.98 12.99 -3 14 C-3.29341888 8.32723489 -3.00559652 5.00932754 0 0 Z " fill="#EBE9AF" transform="translate(511,322)"/>
<path d="M0 0 C0.33 1.32 0.66 2.64 1 4 C2.65 4 4.3 4 6 4 C6.09796875 4.88042969 6.1959375 5.76085937 6.296875 6.66796875 C6.44640625 7.82941406 6.5959375 8.99085938 6.75 10.1875 C6.88921875 11.33605469 7.0284375 12.48460937 7.171875 13.66796875 C8.08783338 17.35340508 9.44330569 19.2406409 12 22 C9.04113474 21.67994614 8.10997626 21.12545946 6.11328125 18.84765625 C2.02079493 12.51806243 -0.11529292 7.59286226 0 0 Z " fill="#FADB2D" transform="translate(486,406)"/>
<path d="M0 0 C3.96 0.33 7.92 0.66 12 1 C12 2.65 12 4.3 12 6 C10.02 6.66 8.04 7.32 6 8 C5.34 7.34 4.68 6.68 4 6 C3.34 6 2.68 6 2 6 C2 5.34 2 4.68 2 4 C1.34 4 0.68 4 0 4 C0 2.68 0 1.36 0 0 Z " fill="#FEEB8F" transform="translate(505,451)"/>
<path d="M0 0 C0.99 0.33 1.98 0.66 3 1 C3.5 3.1875 3.5 3.1875 3 6 C0.51946058 8.01271839 -2.17640062 9.51887086 -5 11 C-5.66 9.35 -6.32 7.7 -7 6 C-2.25 1.125 -2.25 1.125 0 0 Z " fill="#458CB5" transform="translate(414,466)"/>
<path d="M0 0 C2.64 0.33 5.28 0.66 8 1 C7.979375 1.78375 7.95875 2.5675 7.9375 3.375 C7.81315937 5.98114961 7.81315937 5.98114961 9 8 C7.0625 7.1875 7.0625 7.1875 5 6 C4.67 5.01 4.34 4.02 4 3 C3.01 3.495 3.01 3.495 2 4 C2.02320313 5.27617187 2.04640625 6.55234375 2.0703125 7.8671875 C2.08906829 9.5364525 2.10726869 11.2057238 2.125 12.875 C2.15013672 14.13763672 2.15013672 14.13763672 2.17578125 15.42578125 C2.18222656 16.23144531 2.18867187 17.03710938 2.1953125 17.8671875 C2.20578613 18.61081543 2.21625977 19.35444336 2.22705078 20.12060547 C2 22 2 22 0 24 C0 16.08 0 8.16 0 0 Z " fill="#0596CD" transform="translate(529,255)"/>
<path d="M0 0 C5.34844008 0.53484401 9.35796103 2.46690767 14 5 C10.25 6.125 10.25 6.125 8 5 C7.67 6.65 7.34 8.3 7 10 C1.21538462 5.69230769 1.21538462 5.69230769 0.125 2.1875 C0.08375 1.465625 0.0425 0.74375 0 0 Z " fill="#F1EF9D" transform="translate(434,361)"/>
<path d="M0 0 C0.33 0.99 0.66 1.98 1 3 C-2.22265625 6.22265625 -5.4453125 9.4453125 -8.66796875 12.66796875 C-9.23136963 13.23153076 -9.79477051 13.79509277 -10.37524414 14.37573242 C-11.85577323 15.85581657 -13.33795416 17.33424792 -14.8203125 18.8125 C-16.1293492 20.12622859 -17.42375613 21.45514547 -18.6875 22.8125 C-20 24 -20 24 -22 24 C-22 23.34 -22 22.68 -22 22 C-20.7421875 20.80078125 -20.7421875 20.80078125 -18.875 19.3125 C-11.9899222 13.49622489 -6.07393831 6.63856875 0 0 Z " fill="#142D5C" transform="translate(596,502)"/>
<path d="M0 0 C0.66 1.32 1.32 2.64 2 4 C1.34 4.495 0.68 4.99 0 5.5 C-2.8827217 9.10340212 -2.30200997 11.46985042 -2 16 C-3.98 15.34 -5.96 14.68 -8 14 C-8.6875 11.6875 -8.6875 11.6875 -9 9 C-7.44254843 6.75034773 -5.75873664 5.86213522 -3.375 4.5 C-0.70243687 3.16270693 -0.70243687 3.16270693 0 0 Z " fill="#F8EBB6" transform="translate(480,417)"/>
<path d="M0 0 C0.66 0.33 1.32 0.66 2 1 C2.1253302 7.51717053 2.1253302 7.51717053 1.5234375 9.8359375 C0.5841965 13.71906819 0.59786865 17.73234418 0.37890625 21.7109375 C-0.0052385 25.04547232 -0.82964766 27.86326619 -2 31 C-2.33 31 -2.66 31 -3 31 C-3.09864572 25.94276271 -2.74280217 21.06585706 -2.0625 16.0625 C-1.97548828 15.39798828 -1.88847656 14.73347656 -1.79882812 14.04882812 C-1.62414902 12.71479729 -1.44789942 11.38097109 -1.27001953 10.04736328 C-0.82861075 6.700479 -0.41549834 3.35018929 0 0 Z " fill="#075C9F" transform="translate(657,354)"/>
<path d="M0 0 C1.32 0.99 2.64 1.98 4 3 C3.67 4.32 3.34 5.64 3 7 C2.41992188 6.98839844 1.83984375 6.97679687 1.2421875 6.96484375 C-3.26874423 6.91273728 -7.59241517 6.89810379 -12 8 C-12.33 8.66 -12.66 9.32 -13 10 C-13.33 9.01 -13.66 8.02 -14 7 C-9.50343896 4.75171948 -5.92127034 4.83317728 -1 5 C-0.67 3.35 -0.34 1.7 0 0 Z " fill="#FDF8E0" transform="translate(555,428)"/>
<path d="M0 0 C1.46239815 0.20160633 2.92011565 0.43737004 4.375 0.6875 C5.18710937 0.81511719 5.99921875 0.94273437 6.8359375 1.07421875 C7.55007813 1.37972656 8.26421875 1.68523437 9 2 C9.66 3.65 10.32 5.3 11 7 C6.71 6.34 2.42 5.68 -2 5 C-1.34 3.35 -0.68 1.7 0 0 Z " fill="#FEF7C8" transform="translate(507,363)"/>
<path d="M0 0 C0.33 0 0.66 0 1 0 C2.32 9.57 3.64 19.14 5 29 C4.34 28.67 3.68 28.34 3 28 C2.40234375 25.8203125 2.40234375 25.8203125 1.9375 23.125 C1.43729298 20.2891156 0.91310717 17.73932151 0 15 C-0.07029121 12.42734182 -0.09370832 9.88358569 -0.0625 7.3125 C-0.05798828 6.61060547 -0.05347656 5.90871094 -0.04882812 5.18554688 C-0.03706927 3.45699462 -0.01913454 1.72848635 0 0 Z " fill="#1B4665" transform="translate(505,471)"/>
<path d="M0 0 C-1 3 -1 3 -2.77734375 4.203125 C-3.49019531 4.54859375 -4.20304687 4.8940625 -4.9375 5.25 C-6.00291016 5.78367187 -6.00291016 5.78367187 -7.08984375 6.328125 C-8.03537109 6.66070312 -8.03537109 6.66070312 -9 7 C-9.66 6.67 -10.32 6.34 -11 6 C-11 5.34 -11 4.68 -11 4 C-10.34 4 -9.68 4 -9 4 C-8.71125 3.360625 -8.4225 2.72125 -8.125 2.0625 C-6.00428289 -1.82548136 -3.86823244 -0.91616031 0 0 Z " fill="#F9E781" transform="translate(467,442)"/>
<path d="M0 0 C1.07310858 3.27185553 0.89263102 5.42947592 0.0625 8.75 C-0.13214844 9.54921875 -0.32679688 10.3484375 -0.52734375 11.171875 C-0.76130859 12.07679688 -0.76130859 12.07679688 -1 13 C-2.32 13 -3.64 13 -5 13 C-5.33 10.69 -5.66 8.38 -6 6 C-3.525 6.495 -3.525 6.495 -1 7 C-1.020625 6.030625 -1.04125 5.06125 -1.0625 4.0625 C-1 1 -1 1 0 0 Z " fill="#EEDA72" transform="translate(515,487)"/>
<path d="M0 0 C1.203125 1.64453125 1.203125 1.64453125 2 4 C0.734375 6.76171875 0.734375 6.76171875 -1.25 9.6875 C-1.89453125 10.66074219 -2.5390625 11.63398438 -3.203125 12.63671875 C-5 15 -5 15 -7 16 C-6.40165275 11.85701333 -4.99335715 8.81805623 -2.9375 5.1875 C-2.11572266 3.72376953 -2.11572266 3.72376953 -1.27734375 2.23046875 C-0.85582031 1.49441406 -0.43429687 0.75835937 0 0 Z " fill="#0D2E70" transform="translate(637,476)"/>
<path d="M0 0 C3.81684226 1.55500981 6.19195732 4.03595495 9 7 C8.01 7 7.02 7 6 7 C5.67 7.99 5.34 8.98 5 10 C4.34 10 3.68 10 3 10 C0.4606772 6.58168085 -0.3636198 4.24223102 0 0 Z " fill="#F8DC61" transform="translate(573,443)"/>
<path d="M0 0 C1.32 0 2.64 0 4 0 C4.75 1.75 4.75 1.75 5 4 C3.0625 6.25 3.0625 6.25 1 8 C0.01 7.67 -0.98 7.34 -2 7 C-2 5.35 -2 3.7 -2 2 C-1.34 2 -0.68 2 0 2 C0 1.34 0 0.68 0 0 Z " fill="#FAF7EB" transform="translate(544,394)"/>
<path d="M0 0 C2.97 0.495 2.97 0.495 6 1 C5.01 1.495 5.01 1.495 4 2 C4 2.66 4 3.32 4 4 C0.67438135 5.76062164 -0.59173995 6.10784228 -4.3125 5.125 C-5.199375 4.75375 -6.08625 4.3825 -7 4 C-7 3.67 -7 3.34 -7 3 C-3.535 2.505 -3.535 2.505 0 2 C0 1.34 0 0.68 0 0 Z " fill="#FCF4C9" transform="translate(480,386)"/>
<path d="M0 0 C0.99 0 1.98 0 3 0 C3 1.32 3 2.64 3 4 C2 5 1 6 0 7 C-0.72197162 9.60611077 -0.72197162 9.60611077 -1 12 C-1.66 11.67 -2.32 11.34 -3 11 C-2.53199289 6.94393835 -2.12046792 3.53411321 0 0 Z " fill="#FDDB48" transform="translate(512,482)"/>
<path d="M0 0 C2.64 1.32 5.28 2.64 8 4 C8 4.66 8 5.32 8 6 C7.2575 5.649375 6.515 5.29875 5.75 4.9375 C1.95224093 3.64280941 0.27305033 4.39883734 -3.25 6.0625 C-3.8275 6.371875 -4.405 6.68125 -5 7 C-3.61410019 3.90837736 -2.50816459 2.50816459 0 0 Z " fill="#184575" transform="translate(543,437)"/>
<path d="M0 0 C4.571279 0.54855348 8.67435795 1.41744803 13 3 C13 3.66 13 4.32 13 5 C8.62065881 4.48041715 4.31196609 3.94324258 0 3 C0 2.01 0 1.02 0 0 Z " fill="#096DA7" transform="translate(616,298)"/>
<path d="M0 0 C-0.83144531 0.32871094 -0.83144531 0.32871094 -1.6796875 0.6640625 C-6.64863535 2.7787493 -6.64863535 2.7787493 -9.5 7.25 C-9.665 8.1575 -9.83 9.065 -10 10 C-10.33 10 -10.66 10 -11 10 C-11 7.03 -11 4.06 -11 1 C-4.03571429 -1.27678571 -4.03571429 -1.27678571 0 0 Z " fill="#1B4A78" transform="translate(531,449)"/>
<path d="M0 0 C1.77007714 -0.08114106 3.54122098 -0.13925505 5.3125 -0.1875 C6.29863281 -0.22230469 7.28476562 -0.25710938 8.30078125 -0.29296875 C11 0 11 0 14 3 C9.71 3 5.42 3 1 3 C0.67 2.01 0.34 1.02 0 0 Z " fill="#FDEBA9" transform="translate(537,389)"/>
<path d="M0 0 C3.82097239 0.53069061 6.06171403 1.49701566 9 4 C6.69 4.66 4.38 5.32 2 6 C1.34 5.34 0.68 4.68 0 4 C0 2.68 0 1.36 0 0 Z " fill="#FAF5AF" transform="translate(462,384)"/>
<path d="M0 0 C0.99 0.66 1.98 1.32 3 2 C1.92598892 4.91517292 1.22189824 6.77810176 -1 9 C-1.12375 8.195625 -1.2475 7.39125 -1.375 6.5625 C-1.684375 5.2940625 -1.684375 5.2940625 -2 4 C-2.66 3.67 -3.32 3.34 -4 3 C-2.68 2.01 -1.36 1.02 0 0 Z " fill="#FEF9C2" transform="translate(495,392)"/>
<path d="M0 0 C0.33 0.99 0.66 1.98 1 3 C-1.31 5.31 -3.62 7.62 -6 10 C-6 6.41087588 -5.33563446 5.89142971 -3 3.3125 C-2.443125 2.68988281 -1.88625 2.06726563 -1.3125 1.42578125 C-0.879375 0.95527344 -0.44625 0.48476563 0 0 Z M-11 13 C-10.34 13.66 -9.68 14.32 -9 15 C-9.99 15.66 -10.98 16.32 -12 17 C-11.67 15.68 -11.34 14.36 -11 13 Z " fill="#0C2F6E" transform="translate(584,545)"/>
<path d="M0 0 C2.77398263 3.46747828 4.95912413 7.06402511 7 11 C6.67 11.66 6.34 12.32 6 13 C0.24733475 6.49040512 0.24733475 6.49040512 -1 2 C-0.67 1.34 -0.34 0.68 0 0 Z " fill="#0586C2" transform="translate(388,478)"/>
<path d="M0 0 C-3.34955444 1.11651815 -4.67259596 0.99822121 -8 0 C-9.8125 -1.5625 -9.8125 -1.5625 -11 -3 C-6.06995512 -4.74001584 -3.98367078 -3.05723572 0 0 Z " fill="#F8DD62" transform="translate(571,440)"/>
<path d="M0 0 C1.3303125 0.37125 1.3303125 0.37125 2.6875 0.75 C2.3575 1.74 2.0275 2.73 1.6875 3.75 C1.048125 3.564375 0.40875 3.37875 -0.25 3.1875 C-1.2709375 2.9709375 -1.2709375 2.9709375 -2.3125 2.75 C-2.6425 3.08 -2.9725 3.41 -3.3125 3.75 C-4.97867115 3.79063832 -6.64638095 3.792721 -8.3125 3.75 C-4.12788462 -0.31153846 -4.12788462 -0.31153846 0 0 Z " fill="#F7E978" transform="translate(582.3125,364.25)"/>
<path d="M0 0 C0.33 1.65 0.66 3.3 1 5 C0.01 5.33 -0.98 5.66 -2 6 C-2.99 5.34 -3.98 4.68 -5 4 C-5.66 3.67 -6.32 3.34 -7 3 C-3.375 0 -3.375 0 0 0 Z " fill="#FDF385" transform="translate(500,389)"/>
<path d="M0 0 C1.93922422 0.45098238 3.87633594 0.91105559 5.8125 1.375 C6.89144531 1.63023437 7.97039063 1.88546875 9.08203125 2.1484375 C12 3 12 3 15 5 C13.41632253 4.85795259 11.83306682 4.71119847 10.25 4.5625 C9.36828125 4.48128906 8.4865625 4.40007812 7.578125 4.31640625 C3.00904977 3.75565611 3.00904977 3.75565611 1 3 C0.67 2.01 0.34 1.02 0 0 Z " fill="#0780B9" transform="translate(581,290)"/>
<path d="M0 0 C0.66 0.33 1.32 0.66 2 1 C0.625 2.5 0.625 2.5 -1 4 C-1.66 4 -2.32 4 -3 4 C-3 5.65 -3 7.3 -3 9 C-3.99 9.495 -3.99 9.495 -5 10 C-5 7.36 -5 4.72 -5 2 C-2.625 0.9375 -2.625 0.9375 0 0 Z " fill="#132D5B" transform="translate(520,564)"/>
<path d="M0 0 C0.33 1.32 0.66 2.64 1 4 C2.32 4 3.64 4 5 4 C5 5.65 5 7.3 5 9 C3.0625 8.625 3.0625 8.625 1 8 C-0.35439668 5.29120665 -0.06501451 2.99066732 0 0 Z " fill="#FCE860" transform="translate(486,406)"/>
<path d="M0 0 C1.60875 0.928125 1.60875 0.928125 3.25 1.875 C5.79780984 3.3323679 8.35259355 4.72924491 11 6 C8.875 6.75 8.875 6.75 6 7 C2.6875 5.25 2.6875 5.25 0 3 C0 2.01 0 1.02 0 0 Z " fill="#0471AC" transform="translate(435,458)"/>
<path d="M0 0 C2.64 0 5.28 0 8 0 C5.53846154 5.66153846 5.53846154 5.66153846 2.8125 7.375 C1.9153125 7.684375 1.9153125 7.684375 1 8 C1.99 5.69 2.98 3.38 4 1 C2.68 0.67 1.36 0.34 0 0 Z " fill="#19517C" transform="translate(585,360)"/>
<path d="M0 0 C2.12508244 3.18762365 2.5020163 5.26512223 3 9 C0.5 6.6875 0.5 6.6875 -2 4 C-2 3.01 -2 2.02 -2 1 C-1.34 0.67 -0.68 0.34 0 0 Z " fill="#049ED2" transform="translate(385,471)"/>
<path d="M0 0 C4 4.875 4 4.875 4 6 C1.69 6 -0.62 6 -3 6 C-2.42655063 3.13275314 -2.1385485 2.1385485 0 0 Z " fill="#EEE683" transform="translate(439,451)"/>
<path d="M0 0 C1.65 0.33 3.3 0.66 5 1 C4.34 2.32 3.68 3.64 3 5 C1.68 4.67 0.36 4.34 -1 4 C-0.67 2.68 -0.34 1.36 0 0 Z " fill="#FDD652" transform="translate(557,439)"/>
<path d="M0 0 C4.875 2.75 4.875 2.75 6 5 C3.03 4.67 0.06 4.34 -3 4 C-2.01 2.68 -1.02 1.36 0 0 Z " fill="#FCEA8B" transform="translate(559,432)"/>
<path d="M0 0 C2.12472576 -0.05386629 4.24983652 -0.09273071 6.375 -0.125 C7.55835938 -0.14820313 8.74171875 -0.17140625 9.9609375 -0.1953125 C13 0 13 0 15 2 C14.01 2.66 13.02 3.32 12 4 C12 3.34 12 2.68 12 2 C8.37 2 4.74 2 1 2 C0.67 1.34 0.34 0.68 0 0 Z " fill="#FAF1C6" transform="translate(540,391)"/>
<path d="M0 0 C1.32 0.33 2.64 0.66 4 1 C3.34 2.65 2.68 4.3 2 6 C3.65 6 5.3 6 7 6 C7 6.33 7 6.66 7 7 C4.69 7 2.38 7 0 7 C0 4.69 0 2.38 0 0 Z " fill="#297B9C" transform="translate(434,451)"/>
<path d="M0 0 C1.32 0 2.64 0 4 0 C4 1.32 4 2.64 4 4 C2.02 4.33 0.04 4.66 -2 5 C-1.125 1.125 -1.125 1.125 0 0 Z " fill="#F6D149" transform="translate(538,385)"/>
<path d="M0 0 C0.66 1.32 1.32 2.64 2 4 C1.01 4 0.02 4 -1 4 C-1.33 4.99 -1.66 5.98 -2 7 C-3.32 5.68 -4.64 4.36 -6 3 C-4.02 2.01 -2.04 1.02 0 0 Z " fill="#FDE870" transform="translate(467,431)"/>
<path d="M0 0 C0.33 0.99 0.66 1.98 1 3 C0.34 3 -0.32 3 -1 3 C-1.33 4.32 -1.66 5.64 -2 7 C-2.33 6.34 -2.66 5.68 -3 5 C-4.65 5.66 -6.3 6.32 -8 7 C-5.42215154 4.35247996 -3.08351902 2.05567935 0 0 Z " fill="#F3EB84" transform="translate(470,427)"/>
<path d="M0 0 C2.5 2.3125 2.5 2.3125 5 5 C5 5.99 5 6.98 5 8 C3.35 8 1.7 8 0 8 C0 5.36 0 2.72 0 0 Z " fill="#FCF1B2" transform="translate(487,402)"/>
<path d="M0 0 C2.31 0 4.62 0 7 0 C6.67 1.65 6.34 3.3 6 5 C5.01 5 4.02 5 3 5 C3 4.01 3 3.02 3 2 C2.01 1.34 1.02 0.68 0 0 Z " fill="#FCE039" transform="translate(505,385)"/>
<path d="M0 0 C1.65 0 3.3 0 5 0 C4.979375 0.78375 4.95875 1.5675 4.9375 2.375 C4.81315937 4.98114961 4.81315937 4.98114961 6 7 C3.00675737 5.9024777 2.15389099 5.32317108 0.75 2.375 C0.5025 1.59125 0.255 0.8075 0 0 Z " fill="#0470AB" transform="translate(532,256)"/>
<path d="M0 0 C2 2 2 2 2.25 4.25 C1.96379343 7.39827227 1.09940961 10.04533667 0 13 C-0.33 13 -0.66 13 -1 13 C-0.67 8.71 -0.34 4.42 0 0 Z " fill="#FEE35D" transform="translate(508,466)"/>
<path d="M0 0 C3.465 1.485 3.465 1.485 7 3 C4.59454362 4.20272819 3.05003047 4.10071472 0.375 4.0625 C-0.85089844 4.04896484 -0.85089844 4.04896484 -2.1015625 4.03515625 C-3.04128906 4.01775391 -3.04128906 4.01775391 -4 4 C-4.33 3.34 -4.66 2.68 -5 2 C-4.01 1.67 -3.02 1.34 -2 1 C-1.34 1.33 -0.68 1.66 0 2 C0 1.34 0 0.68 0 0 Z " fill="#F2D461" transform="translate(479,383)"/>
<path d="M0 0 C0.99 0.33 1.98 0.66 3 1 C0.03 4.96 0.03 4.96 -3 9 C-3.33 8.01 -3.66 7.02 -4 6 C-2.0625 2.8125 -2.0625 2.8125 0 0 Z " fill="#102A5A" transform="translate(613,479)"/>
<path d="M0 0 C-2.4867421 1.4346589 -4.3116189 2.0488814 -7.1875 2.5 C-8.5796875 2.7475 -8.5796875 2.7475 -10 3 C-10.33 3.66 -10.66 4.32 -11 5 C-11.33 4.01 -11.66 3.02 -12 2 C-7.8794254 0.00214565 -4.54805635 -0.17835515 0 0 Z " fill="#F8EECC" transform="translate(553,433)"/>
<path d="M0 0 C2.97 0.495 2.97 0.495 6 1 C6 1.66 6 2.32 6 3 C4.68 3 3.36 3 2 3 C1.01 4.485 1.01 4.485 0 6 C-0.66 4.68 -1.32 3.36 -2 2 C-1.34 2 -0.68 2 0 2 C0 1.34 0 0.68 0 0 Z " fill="#FDF17A" transform="translate(442,366)"/>
<path d="M0 0 C1.48117801 0.28127421 2.95993249 0.57533732 4.4375 0.875 C5.67306641 1.11863281 5.67306641 1.11863281 6.93359375 1.3671875 C7.61550781 1.57601563 8.29742188 1.78484375 9 2 C9.33 2.66 9.66 3.32 10 4 C3.375 4.25 3.375 4.25 0 2 C0 1.34 0 0.68 0 0 Z " fill="#0A86BD" transform="translate(566,286)"/>
<path d="M0 0 C0.94875 0.350625 1.8975 0.70125 2.875 1.0625 C2.545 2.7125 2.215 4.3625 1.875 6.0625 C1.215 5.4025 0.555 4.7425 -0.125 4.0625 C-0.125 3.0725 -0.125 2.0825 -0.125 1.0625 C-1.445 1.3925 -2.765 1.7225 -4.125 2.0625 C-4.455 1.4025 -4.785 0.7425 -5.125 0.0625 C-3.125 -0.9375 -3.125 -0.9375 0 0 Z " fill="#F8D552" transform="translate(571.125,440.9375)"/>
<path d="M0 0 C-0.33 0.66 -0.66 1.32 -1 2 C-4.47325181 3.1577506 -7.36067448 3.06866652 -11 3 C-6.98213116 0.99106558 -4.56087444 -0.12002301 0 0 Z " fill="#FDE589" transform="translate(554,434)"/>
<path d="M0 0 C4.75 0.75 4.75 0.75 7 3 C5.02 3.99 5.02 3.99 3 5 C2.87625 4.360625 2.7525 3.72125 2.625 3.0625 C2.315625 2.0415625 2.315625 2.0415625 2 1 C1.34 0.67 0.68 0.34 0 0 Z " fill="#FDEE66" transform="translate(498,388)"/>
<path d="M0 0 C0.33 0.66 0.66 1.32 1 2 C1.66 2.33 2.32 2.66 3 3 C-0.75 6 -0.75 6 -3 6 C-1.125 1.125 -1.125 1.125 0 0 Z " fill="#F1E06E" transform="translate(560,384)"/>
<path d="M0 0 C-2.05233685 2.2477975 -3.00667261 3.0022242 -6 4 C-6.66 3.01 -7.32 2.02 -8 1 C-5.29120665 -0.35439668 -2.99066732 -0.06501451 0 0 Z " fill="#F9F7D6" transform="translate(473,388)"/>
<path d="M0 0 C1.65 0 3.3 0 5 0 C4.1875 2.4375 4.1875 2.4375 3 5 C2.01 5.33 1.02 5.66 0 6 C-1.125 2.25 -1.125 2.25 0 0 Z " fill="#E5D97B" transform="translate(542,382)"/>
<path d="M0 0 C1.32 0 2.64 0 4 0 C3.67 1.98 3.34 3.96 3 6 C1.5 4.6875 1.5 4.6875 0 3 C0 2.01 0 1.02 0 0 Z " fill="#F0F0B9" transform="translate(434,361)"/>
<path d="M0 0 C0.33 0.99 0.66 1.98 1 3 C-0.98 4.32 -2.96 5.64 -5 7 C-4.60196439 4.11424181 -4.20990931 3.17810487 -1.9375 1.25 C-1.298125 0.8375 -0.65875 0.425 0 0 Z " fill="#F5E870" transform="translate(448,444)"/>
<path d="M0 0 C0.33 0 0.66 0 1 0 C1 2.31 1 4.62 1 7 C1.66 7.33 2.32 7.66 3 8 C1.68 8 0.36 8 -1 8 C-1.625 5.6875 -1.625 5.6875 -2 3 C-1.34 2.01 -0.68 1.02 0 0 Z " fill="#DEDEA7" transform="translate(473,423)"/>
<path d="M0 0 C0.99 0 1.98 0 3 0 C2.42655063 2.86724686 2.1385485 3.8614515 0 6 C-0.66 4.68 -1.32 3.36 -2 2 C-1.34 2 -0.68 2 0 2 C0 1.34 0 0.68 0 0 Z " fill="#FCF8E1" transform="translate(484,388)"/>
</svg>
